# xmcd
#
# Track frame offsets:
#	150
#	13091
#	32439
#	50979
#	67534
#	82498
#	99707
#	112745
#	125754
#	141866
#	160608
#	177063
#	192850
#	206490
#
# Disc length: 2974 seconds
#
# Revision: 1
# Processed by: cddbd v1.5.2PL0 Copyright (c) Steve Scherf et al.
# Submitted via: audiograbber 1.83.01
#
DISCID=bb0b9c0e
DTITLE=Mestre Zinho - Gelo na Farinha
DYEAR=2005
DGENRE=Forró
TTITLE0=Gelo na Farinha
TTITLE1=Cuidado Iracema
TTITLE2=Fique Linda e Bote Cheiro
TTITLE3=Doce de Pudim
TTITLE4=Forró de Candeeiro
TTITLE5=Forró de Tremedeira
TTITLE6=Pé-de-serra com Mele
TTITLE7=Forró Passe a Mão
TTITLE8=Melô do Desempregado
TTITLE9=Alegria do Povo
TTITLE10=Moça
TTITLE11=Calafrio
TTITLE12=Afogar a Tristeza
TTITLE13=Relâmpago e Trovão
EXTD=
EXTT0=
EXTT1=
EXTT2=
EXTT3=
EXTT4=
EXTT5=
EXTT6=
EXTT7=
EXTT8=
EXTT9=
EXTT10=
EXTT11=
EXTT12=
EXTT13=
PLAYORDER=
